# xmcd
#
# Track frame offsets:
#	150
#	17214
#	35428
#	52353
#	75414
#	90793
#	107795
#	121725
#	137837
#	153840
#	171457
#	187345
#
# Disc length: 2773 seconds
#
# Revision: 1
# Processed by: cddbd v1.5.2PL0 Copyright (c) Steve Scherf et al.
# Submitted via: audiograbber 1.83.01
#
DISCID=9b0ad30c
DTITLE=SHAILA DURCAL - RECORDANDO
DYEAR=2005
DGENRE=POP
TTITLE0=NO SIRVO PARA TI
TTITLE1=VOLVERTE A VER
TTITLE2=DEJAME VIVIR
TTITLE3=AMOR ETERNO
TTITLE4=SI YO TUVIERA ROSAS
TTITLE5=COMO TU MUJER
TTITLE6=JAMAS ME CANSARE DE TI
TTITLE7=TARDE
TTITLE8=NO LASTIMES MAS
TTITLE9=VUELVETE LA LUNA
TTITLE10=COSTUMBRES
TTITLE11=VOLVER A VERTE
EXTD=
EXTT0=
EXTT1=
EXTT2=
EXTT3=
EXTT4=
EXTT5=
EXTT6=
EXTT7=
EXTT8=
EXTT9=
EXTT10=
EXTT11=
PLAYORDER=
